<?xml version="1.0" encoding="utf-8"?>
<!-- Generator: Adobe Illustrator 19.0.1, SVG Export Plug-In . SVG Version: 6.00 Build 0)  -->
<!DOCTYPE svg PUBLIC "-//W3C//DTD SVG 1.1//EN" "http://www.w3.org/Graphics/SVG/1.1/DTD/svg11.dtd">
<svg version="1.1" id="Capa_1" xmlns="http://www.w3.org/2000/svg" xmlns:xlink="http://www.w3.org/1999/xlink" x="0px" y="0px"
	 viewBox="-434 236 90 90" enable-background="new -434 236 90 90" xml:space="preserve">
<path id="XMLID_18_" d="M-362.3,236h-53.9c-5.6,0-10.3,4.7-10.3,10.3v68.9c0,5.2,4.7,9.8,10.3,9.8h54.4c5.6,0,10.3-4.7,10.3-10.3
	v-68.4C-352,240.7-356.7,236-362.3,236z M-374.5,245.4h5.2v4.7h-5.2V245.4z M-374.5,254.3h5.2v4.7h-5.2V254.3z M-374.5,262.7h5.2
	v4.7h-5.2V262.7z M-374.5,271.6h5.2v4.7h-5.2V271.6z M-374.5,280.5h5.2v4.7h-5.2V280.5z M-382.9,315.6h-34.2V303h34.7v12.7H-382.9z
	 M-382.9,296h-34.2v-50.6h34.7V296H-382.9z M-359.9,302.1h-14.5v-9.8h14.5V302.1z M-359.9,285.7h-5.2V281h5.2V285.7z M-359.9,276.8
	h-5.2v-4.7h5.2V276.8z M-359.9,267.8h-5.2v-4.7h5.2V267.8z M-359.9,258.9h-5.2v-4.7h5.2V258.9z M-359.9,250h-5.2v-4.7h5.2V250z"/>
</svg>
